<svg width="449" height="71" viewBox="0 0 449 71" fill="none" xmlns="http://www.w3.org/2000/svg">
<rect width="449" height="71" fill="#FFEA00"/>
<path d="M172 26.5C177.5 26.5 182 30.08 182 34.5C182 38.92 177.5 42.5 172 42.5C170.792 42.5 169.631 42.3291 168.554 42.0242C168.5 42.009 168.443 42.0164 168.395 42.0453L163.915 44.7495C163.762 44.8418 163.574 44.7034 163.617 44.5303C164.046 42.8154 164.588 40.648 164.72 40.1199C164.739 40.0458 164.713 39.9689 164.655 39.9189C163.011 38.497 162 36.59 162 34.5C162 30.08 166.5 26.5 172 26.5Z" fill="#1E1E1E"/>
<path d="M202.928 29.4316C202.91 33.9492 201.381 38.0801 195.756 40.8398L194.982 39.7852C197.927 38.3613 199.693 36.5508 200.642 34.4414L195.281 34.9512L195.053 33.7383L201.064 33.334C201.337 32.4551 201.495 31.5322 201.557 30.5742H195.844V29.4316H202.928ZM206.918 27.7969V34.1602H209.449V35.3203H206.918V43.4238H205.547V27.7969H206.918ZM217.944 29.4316C217.927 33.9492 216.397 38.0801 210.772 40.8398L209.999 39.7852C212.943 38.3613 214.71 36.5508 215.659 34.4414L210.298 34.9512L210.069 33.7383L216.081 33.334C216.353 32.4551 216.512 31.5322 216.573 30.5742H210.86V29.4316H217.944ZM221.934 27.7969V34.1602H224.466V35.3203H221.934V43.4238H220.563V27.7969H221.934ZM231.977 28.8164C235.299 28.834 237.689 30.4512 237.689 32.9121C237.689 35.2412 235.615 36.7881 232.644 36.9727V40.2598H239.166V41.4199H224.857V40.2598H231.291V36.9727C228.329 36.7793 226.264 35.2324 226.264 32.9121C226.264 30.4512 228.654 28.834 231.977 28.8164ZM231.977 29.959C229.445 29.959 227.6 31.1543 227.6 32.9121C227.6 34.7227 229.445 35.8828 231.977 35.9004C234.508 35.8828 236.353 34.7227 236.353 32.9121C236.353 31.1543 234.508 29.959 231.977 29.959ZM258.16 40.3301V41.4902H243.852V40.3301H250.285V37.377H245.645V32.5605H254.996V30.0996H245.609V28.957H256.35V33.6855H247.016V36.2344H256.719V37.377H251.639V40.3301H258.16ZM271.191 29.4668V31.0312C271.191 33 271.191 35.2324 270.61 38.625L269.204 38.4844C269.837 35.2852 269.837 32.9473 269.837 31.0312V30.6094H260.415V29.4668H271.191ZM273.107 39.9785V41.1211H258.868V39.9785H273.107ZM286.787 27.8145V39.2402H285.416V27.8145H286.787ZM287.279 41.9297V43.0898H276.697V38.0801H278.068V41.9297H287.279ZM278.35 28.9043C280.688 28.9043 282.445 30.4863 282.445 32.7363C282.445 35.0215 280.688 36.5859 278.35 36.5859C276.012 36.5859 274.254 35.0215 274.254 32.7363C274.254 30.4863 276.012 28.9043 278.35 28.9043ZM278.35 30.1172C276.768 30.1172 275.59 31.207 275.608 32.7363C275.59 34.3008 276.768 35.373 278.35 35.373C279.897 35.373 281.092 34.3008 281.092 32.7363C281.092 31.207 279.897 30.1172 278.35 30.1172Z" fill="#1E1E1E"/>
</svg>
