<svg width="768" height="380" viewBox="0 0 768 380" fill="none" xmlns="http://www.w3.org/2000/svg">
<line x1="120" y1="378" x2="768" y2="378" stroke="#FFECEF" stroke-width="4"/>
<line x1="118" y1="380" x2="118" stroke="#FFECEF" stroke-width="4"/>
<path d="M120 176C120 87.6344 191.634 16 280 16H540C584.183 16 620 51.8172 620 96V256C620 322.274 566.274 376 500 376H120V176Z" fill="#FF6A87"/>
<path d="M120 336C120 247.634 191.634 176 280 176H660C704.183 176 740 211.817 740 256C740 322.274 686.274 376 620 376H120V336Z" fill="#FFB2BD"/>
<path d="M612.66 33.2344C608.934 33.2344 606.262 31.1719 606.191 28.2188H609.754C609.824 29.4844 611.043 30.3281 612.684 30.3281C614.371 30.3281 615.59 29.3672 615.566 28.0078C615.59 26.625 614.348 25.6406 612.355 25.6406H610.785V23.0391H612.355C614.02 23.0391 615.191 22.125 615.191 20.7891C615.191 19.5 614.207 18.6094 612.707 18.6094C611.207 18.6094 609.965 19.4531 609.918 20.7422H606.543C606.59 17.8125 609.238 15.7969 612.707 15.7969C616.246 15.7969 618.613 17.8828 618.59 20.5781C618.613 22.4766 617.277 23.8359 615.379 24.1641V24.3047C617.863 24.6094 619.246 26.1328 619.223 28.2422C619.246 31.1484 616.48 33.2344 612.66 33.2344ZM628.293 33.2344C624.051 33.2344 621.473 30.0703 621.473 24.5156C621.473 18.9609 624.051 15.7969 628.293 15.7969C632.535 15.7969 635.113 18.9844 635.113 24.5156C635.113 30.0938 632.535 33.2344 628.293 33.2344ZM628.293 30.3281C630.262 30.3281 631.527 28.4297 631.504 24.5156C631.504 20.6484 630.262 18.6797 628.293 18.6797C626.324 18.6797 625.082 20.6484 625.082 24.5156C625.059 28.4297 626.324 30.3281 628.293 30.3281ZM654.777 13.8281V35.1562H651.801V13.8281H654.777ZM636.941 29.1328C638.57 29.1211 640.434 29.1211 642.379 29.0625V27.2578C640.035 26.8477 638.512 25.3945 638.535 23.3906C638.512 21 640.691 19.3828 643.832 19.3828C646.996 19.3828 649.199 21 649.199 23.3906C649.199 25.3828 647.676 26.8359 645.332 27.2578V28.9688C647.113 28.8867 648.918 28.7461 650.629 28.5234L650.84 30.7266C646.176 31.5234 641.137 31.5703 637.34 31.5703L636.941 29.1328ZM650.324 16.1953V18.5391H637.363V16.1953H642.379V13.9219H645.355V16.1953H650.324ZM643.832 21.6562C642.379 21.6562 641.348 22.2891 641.371 23.3906C641.348 24.5156 642.379 25.125 643.832 25.125C645.332 25.125 646.34 24.5156 646.34 23.3906C646.34 22.2891 645.332 21.6562 643.832 21.6562Z" fill="#FF6A87"/>
<path d="M710.93 172L710.906 169.445L717 163.844C718.594 162.32 719.438 161.383 719.438 160.047C719.438 158.547 718.289 157.609 716.742 157.609C715.148 157.609 714.117 158.617 714.117 160.234H710.766C710.742 156.906 713.203 154.797 716.789 154.797C720.422 154.797 722.836 156.859 722.836 159.812C722.836 161.734 721.898 163.328 718.406 166.492L715.828 169V169.094H723.07V172H710.93ZM732.141 172.234C728.625 172.211 725.297 170.125 725.297 163.914C725.297 158.195 728.039 154.797 732.281 154.797C735.703 154.797 738.023 156.953 738.375 159.742H734.906C734.625 158.547 733.641 157.82 732.281 157.82C729.984 157.82 728.766 159.906 728.742 163.234H728.906C729.68 161.734 731.367 160.844 733.242 160.844C736.289 160.844 738.562 163.141 738.562 166.328C738.562 169.773 735.961 172.258 732.141 172.234ZM732.117 169.445C733.852 169.445 735.141 168.133 735.141 166.422C735.141 164.734 733.898 163.398 732.164 163.398C730.43 163.398 729.117 164.758 729.094 166.422C729.117 168.086 730.383 169.445 732.117 169.445ZM758.227 152.828V174.156H755.25V152.828H758.227ZM740.391 168.133C742.02 168.121 743.883 168.121 745.828 168.062V166.258C743.484 165.848 741.961 164.395 741.984 162.391C741.961 160 744.141 158.383 747.281 158.383C750.445 158.383 752.648 160 752.648 162.391C752.648 164.383 751.125 165.836 748.781 166.258V167.969C750.562 167.887 752.367 167.746 754.078 167.523L754.289 169.727C749.625 170.523 744.586 170.57 740.789 170.57L740.391 168.133ZM753.773 155.195V157.539H740.812V155.195H745.828V152.922H748.805V155.195H753.773ZM747.281 160.656C745.828 160.656 744.797 161.289 744.82 162.391C744.797 163.516 745.828 164.125 747.281 164.125C748.781 164.125 749.789 163.516 749.789 162.391C749.789 161.289 748.781 160.656 747.281 160.656Z" fill="#FFB2BD"/>
<rect y="244" width="84" height="20" fill="#FF6A87"/>
<path d="M39.5039 220.641V221.801C39.5039 223.014 39.5039 224.438 39.0996 226.389H41.3848V227.531H27.0762V226.389H37.7109C38.1328 224.429 38.1328 223.014 38.1328 221.801V221.783H28.8867V220.641H39.5039ZM39.5742 229.693V235.213H28.834V229.693H39.5742ZM30.2051 230.783V234.088H38.2031V230.783H30.2051ZM55.5176 219.814V229.025H54.1289V228.164H50.9648V227.25H54.1289V219.814H55.5176ZM42.5801 225.703C45.6035 225.721 49.4707 225.686 52.8457 225.316L52.9336 226.213C51.4043 226.433 49.8135 226.564 48.2578 226.635V229.078H46.9043V226.688C45.4277 226.74 44.0127 226.749 42.7383 226.74L42.5801 225.703ZM55.5176 229.588V232.822H46.3945V234.229H56.0273V235.248H45.041V231.855H54.1465V230.59H44.9707V229.588H55.5176ZM47.6777 220.113C49.998 220.113 51.5449 221.027 51.5625 222.469C51.5449 223.928 49.998 224.807 47.6777 224.807C45.3223 224.807 43.793 223.928 43.793 222.469C43.793 221.027 45.3223 220.113 47.6777 220.113ZM47.6777 221.08C46.0957 221.08 45.0762 221.625 45.0938 222.469C45.0762 223.295 46.0957 223.857 47.6777 223.857C49.2422 223.857 50.2617 223.295 50.2617 222.469C50.2617 221.625 49.2422 221.08 47.6777 221.08Z" fill="#FF6A87"/>
<rect y="316" width="84" height="20" fill="#FFB2BD"/>
<path d="M40.0312 291.814V303.275H38.6426V297.281H35.4258V296.139H38.6426V291.814H40.0312ZM40.4707 305.93V307.09H29.9941V302.238H31.3828V305.93H40.4707ZM32.5078 295.031C32.5078 297.053 34.0723 299.021 36.3574 299.795L35.6367 300.902C33.8701 300.27 32.5078 298.951 31.8398 297.334C31.1631 299.136 29.7217 300.577 27.8672 301.271L27.1465 300.146C29.4492 299.338 31.1191 297.281 31.1191 295.031V294.223H27.5859V293.08H36.0059V294.223H32.5078V295.031ZM55.5176 291.814V301.025H54.1289V300.164H50.9648V299.25H54.1289V291.814H55.5176ZM42.5801 297.703C45.6035 297.721 49.4707 297.686 52.8457 297.316L52.9336 298.213C51.4043 298.433 49.8135 298.564 48.2578 298.635V301.078H46.9043V298.688C45.4277 298.74 44.0127 298.749 42.7383 298.74L42.5801 297.703ZM55.5176 301.588V304.822H46.3945V306.229H56.0273V307.248H45.041V303.855H54.1465V302.59H44.9707V301.588H55.5176ZM47.6777 292.113C49.998 292.113 51.5449 293.027 51.5625 294.469C51.5449 295.928 49.998 296.807 47.6777 296.807C45.3223 296.807 43.793 295.928 43.793 294.469C43.793 293.027 45.3223 292.113 47.6777 292.113ZM47.6777 293.08C46.0957 293.08 45.0762 293.625 45.0938 294.469C45.0762 295.295 46.0957 295.857 47.6777 295.857C49.2422 295.857 50.2617 295.295 50.2617 294.469C50.2617 293.625 49.2422 293.08 47.6777 293.08Z" fill="#FFB2BD"/>
</svg>
