<svg width="20" height="40" viewBox="0 0 20 40" fill="none" xmlns="http://www.w3.org/2000/svg">
<path d="M16.0369 39.2084L0.506912 21.4776C0.322581 21.2665 0.19232 21.0378 0.116129 20.7916C0.0387097 20.5453 0 20.2814 0 20C0 19.7186 0.0387097 19.4547 0.116129 19.2084C0.19232 18.9622 0.322581 18.7335 0.506912 18.5224L16.0369 0.738786C16.467 0.246262 17.0046 0 17.6498 0C18.2949 0 18.8479 0.263852 19.3088 0.791557C19.7696 1.31926 20 1.93492 20 2.63852C20 3.34213 19.7696 3.95778 19.3088 4.48549L5.76037 20L19.3088 35.5145C19.7389 36.007 19.9539 36.6135 19.9539 37.334C19.9539 38.0559 19.7235 38.6807 19.2627 39.2084C18.8018 39.7361 18.2642 40 17.6498 40C17.0353 40 16.4977 39.7361 16.0369 39.2084Z" fill="#FFD6DB"/>
</svg>
