<svg width="72" height="56" viewBox="0 0 72 56" fill="none" xmlns="http://www.w3.org/2000/svg">
<rect x="0.5" y="0.5" width="71" height="55" rx="27.5" fill="url(#paint0_linear_279_209)" stroke="url(#paint1_linear_279_209)"/>
<path d="M40.0003 19.84L38.667 25.3333H46.4403C46.8543 25.3333 47.2626 25.4297 47.6329 25.6148C48.0032 25.8 48.3253 26.0688 48.5737 26.4C48.8221 26.7311 48.9899 27.1156 49.064 27.5229C49.138 27.9302 49.1162 28.3492 49.0003 28.7466L45.8937 39.4133C45.7321 39.9672 45.3953 40.4538 44.9337 40.8C44.4721 41.1462 43.9106 41.3333 43.3337 41.3333H25.3337C24.6264 41.3333 23.9481 41.0523 23.448 40.5522C22.9479 40.0521 22.667 39.3739 22.667 38.6666V28C22.667 27.2927 22.9479 26.6144 23.448 26.1143C23.9481 25.6142 24.6264 25.3333 25.3337 25.3333H29.0137C29.5098 25.333 29.996 25.1944 30.4176 24.9329C30.8392 24.6715 31.1796 24.2976 31.4003 23.8533L36.0003 14.6666C36.6291 14.6744 37.248 14.8242 37.8107 15.1048C38.3735 15.3853 38.8656 15.7894 39.2502 16.2869C39.6348 16.7844 39.9021 17.3623 40.032 17.9776C40.1619 18.5928 40.151 19.2295 40.0003 19.84Z" fill="white"/>
<path d="M29.333 25.3334V41.3334V25.3334Z" fill="white"/>
<path d="M29.333 25.3334V41.3334" stroke="#FF6A87" stroke-linecap="round" stroke-linejoin="round"/>
<defs>
<linearGradient id="paint0_linear_279_209" x1="36" y1="0" x2="36" y2="56" gradientUnits="userSpaceOnUse">
<stop stop-color="#FF6A87"/>
<stop offset="1" stop-color="#D7526C"/>
</linearGradient>
<linearGradient id="paint1_linear_279_209" x1="36" y1="0" x2="36" y2="56" gradientUnits="userSpaceOnUse">
<stop stop-color="#FF6A87"/>
<stop offset="1" stop-color="#D7526C"/>
</linearGradient>
</defs>
</svg>
