<svg width="20" height="13" viewBox="0 0 20 13" fill="none" xmlns="http://www.w3.org/2000/svg">
<path d="M12.85 0.5H7.15C3.47731 0.5 0.5 3.18629 0.5 6.5C0.5 9.81371 3.47731 12.5 7.15 12.5H12.85C16.5227 12.5 19.5 9.81371 19.5 6.5C19.5 3.18629 16.5227 0.5 12.85 0.5Z" fill="url(#paint0_linear_294_687)" stroke="url(#paint1_linear_294_687)" stroke-linecap="round" stroke-linejoin="round"/>
<path d="M13.5 10.5C15.7091 10.5 17.5 8.70914 17.5 6.5C17.5 4.29086 15.7091 2.5 13.5 2.5C11.2909 2.5 9.5 4.29086 9.5 6.5C9.5 8.70914 11.2909 10.5 13.5 10.5Z" fill="#FAFAF8" stroke="#FAFAF8" stroke-linecap="round" stroke-linejoin="round"/>
<defs>
<linearGradient id="paint0_linear_294_687" x1="10" y1="0.5" x2="10" y2="12.5" gradientUnits="userSpaceOnUse">
<stop stop-color="#FF6A87"/>
<stop offset="1" stop-color="#D7526C"/>
</linearGradient>
<linearGradient id="paint1_linear_294_687" x1="10" y1="0.5" x2="10" y2="12.5" gradientUnits="userSpaceOnUse">
<stop stop-color="#FF6A87"/>
<stop offset="1" stop-color="#D7526C"/>
</linearGradient>
</defs>
</svg>
